<svg width="448" height="192" viewBox="0 0 448 192" fill="none" xmlns="http://www.w3.org/2000/svg">
<path d="M21.02 176.35C20.41 175.245 19.662 174.35 18.912 173.726C18.0143 174.392 16.9268 174.753 15.809 174.756C14.6903 174.753 13.6018 174.392 12.703 173.726C11.953 174.351 11.205 175.246 10.593 176.349C9.17001 178.911 9.01301 181.539 10.243 182.222C10.793 182.529 11.369 182.3 11.965 181.726C11.8543 182.344 11.7987 182.971 11.799 183.599C11.799 186.531 12.939 188.906 14.342 188.906C15.188 188.906 15.607 188.041 15.808 186.716C16.008 188.041 16.428 188.906 17.27 188.906C18.676 188.906 19.815 186.531 19.815 183.599C19.815 182.939 19.755 182.309 19.647 181.726C20.244 182.3 20.82 182.529 21.371 182.222C22.599 181.54 22.441 178.912 21.018 176.348L21.02 176.35ZM15.808 173.757C16.3701 173.757 16.9266 173.646 17.4458 173.431C17.965 173.215 18.4367 172.9 18.834 172.502C19.2313 172.105 19.5464 171.633 19.7613 171.114C19.9762 170.594 20.0867 170.038 20.0865 169.476C20.0863 168.913 19.9754 168.357 19.7601 167.838C19.5449 167.319 19.2294 166.847 18.8319 166.45C18.4343 166.052 17.9624 165.737 17.443 165.522C16.9237 165.307 16.3671 165.197 15.805 165.197C15.2429 165.197 14.6863 165.308 14.167 165.523C13.6478 165.739 13.176 166.054 12.7787 166.452C11.9762 167.255 11.5256 168.344 11.526 169.479C11.5264 170.614 11.9778 171.703 12.7808 172.505C13.5838 173.308 14.6727 173.758 15.808 173.758V173.757Z" fill="#616A74"/>
<path d="M85.02 176.35C84.41 175.245 83.662 174.35 82.912 173.726C82.0143 174.392 80.9268 174.753 79.809 174.756C78.6903 174.753 77.6018 174.392 76.703 173.726C75.953 174.351 75.205 175.246 74.593 176.349C73.17 178.911 73.013 181.539 74.243 182.222C74.793 182.529 75.369 182.3 75.965 181.726C75.8543 182.344 75.7987 182.971 75.799 183.599C75.799 186.531 76.939 188.906 78.342 188.906C79.188 188.906 79.607 188.041 79.808 186.716C80.008 188.041 80.428 188.906 81.27 188.906C82.676 188.906 83.815 186.531 83.815 183.599C83.815 182.939 83.755 182.309 83.647 181.726C84.244 182.3 84.82 182.529 85.371 182.222C86.599 181.54 86.441 178.912 85.018 176.348L85.02 176.35ZM79.808 173.757C80.3701 173.757 80.9266 173.646 81.4458 173.431C81.965 173.215 82.4367 172.9 82.834 172.502C83.2313 172.105 83.5464 171.633 83.7613 171.114C83.9762 170.594 84.0867 170.038 84.0865 169.476C84.0863 168.913 83.9754 168.357 83.7601 167.838C83.5449 167.319 83.2294 166.847 82.8319 166.45C82.4343 166.052 81.9624 165.737 81.443 165.522C80.9237 165.307 80.3671 165.197 79.805 165.197C79.2429 165.197 78.6863 165.308 78.167 165.523C77.6478 165.739 77.176 166.054 76.7787 166.452C75.9762 167.255 75.5256 168.344 75.526 169.479C75.5264 170.614 75.9778 171.703 76.7808 172.505C77.5838 173.308 78.6727 173.758 79.808 173.758V173.757Z" fill="#616A74"/>
<path d="M149.02 176.35C148.41 175.245 147.662 174.35 146.912 173.726C146.014 174.392 144.927 174.753 143.809 174.756C142.69 174.753 141.602 174.392 140.703 173.726C139.953 174.351 139.205 175.246 138.593 176.349C137.17 178.911 137.013 181.539 138.243 182.222C138.793 182.529 139.369 182.3 139.965 181.726C139.854 182.344 139.799 182.971 139.799 183.599C139.799 186.531 140.939 188.906 142.342 188.906C143.188 188.906 143.607 188.041 143.808 186.716C144.008 188.041 144.428 188.906 145.27 188.906C146.676 188.906 147.815 186.531 147.815 183.599C147.815 182.939 147.755 182.309 147.647 181.726C148.244 182.3 148.82 182.529 149.371 182.222C150.599 181.54 150.441 178.912 149.018 176.348L149.02 176.35ZM143.808 173.757C144.37 173.757 144.927 173.646 145.446 173.431C145.965 173.215 146.437 172.9 146.834 172.502C147.231 172.105 147.546 171.633 147.761 171.114C147.976 170.594 148.087 170.038 148.087 169.476C148.086 168.913 147.975 168.357 147.76 167.838C147.545 167.319 147.229 166.847 146.832 166.45C146.434 166.052 145.962 165.737 145.443 165.522C144.924 165.307 144.367 165.197 143.805 165.197C143.243 165.197 142.686 165.308 142.167 165.523C141.648 165.739 141.176 166.054 140.779 166.452C139.976 167.255 139.526 168.344 139.526 169.479C139.526 170.614 139.978 171.703 140.781 172.505C141.584 173.308 142.673 173.758 143.808 173.758V173.757Z" fill="#616A74"/>
<path d="M213.02 176.35C212.41 175.245 211.662 174.35 210.912 173.726C210.014 174.392 208.927 174.753 207.809 174.756C206.69 174.753 205.602 174.392 204.703 173.726C203.953 174.351 203.205 175.246 202.593 176.349C201.17 178.911 201.013 181.539 202.243 182.222C202.793 182.529 203.369 182.3 203.965 181.726C203.854 182.344 203.799 182.971 203.799 183.599C203.799 186.531 204.939 188.906 206.342 188.906C207.188 188.906 207.607 188.041 207.808 186.716C208.008 188.041 208.428 188.906 209.27 188.906C210.676 188.906 211.815 186.531 211.815 183.599C211.815 182.939 211.755 182.309 211.647 181.726C212.244 182.3 212.82 182.529 213.371 182.222C214.599 181.54 214.441 178.912 213.018 176.348L213.02 176.35ZM207.808 173.757C208.37 173.757 208.927 173.646 209.446 173.431C209.965 173.215 210.437 172.9 210.834 172.502C211.231 172.105 211.546 171.633 211.761 171.114C211.976 170.594 212.087 170.038 212.087 169.476C212.086 168.913 211.975 168.357 211.76 167.838C211.545 167.319 211.229 166.847 210.832 166.45C210.434 166.052 209.962 165.737 209.443 165.522C208.924 165.307 208.367 165.197 207.805 165.197C207.243 165.197 206.686 165.308 206.167 165.523C205.648 165.739 205.176 166.054 204.779 166.452C203.976 167.255 203.526 168.344 203.526 169.479C203.526 170.614 203.978 171.703 204.781 172.505C205.584 173.308 206.673 173.758 207.808 173.758V173.757Z" fill="#616A74"/>
<path d="M277.02 176.35C276.41 175.245 275.662 174.35 274.912 173.726C274.014 174.392 272.927 174.753 271.809 174.756C270.69 174.753 269.602 174.392 268.703 173.726C267.953 174.351 267.205 175.246 266.593 176.349C265.17 178.911 265.013 181.539 266.243 182.222C266.793 182.529 267.369 182.3 267.965 181.726C267.854 182.344 267.799 182.971 267.799 183.599C267.799 186.531 268.939 188.906 270.342 188.906C271.188 188.906 271.607 188.041 271.808 186.716C272.008 188.041 272.428 188.906 273.27 188.906C274.676 188.906 275.815 186.531 275.815 183.599C275.815 182.939 275.755 182.309 275.647 181.726C276.244 182.3 276.82 182.529 277.371 182.222C278.599 181.54 278.441 178.912 277.018 176.348L277.02 176.35ZM271.808 173.757C272.37 173.757 272.927 173.646 273.446 173.431C273.965 173.215 274.437 172.9 274.834 172.502C275.231 172.105 275.546 171.633 275.761 171.114C275.976 170.594 276.087 170.038 276.087 169.476C276.086 168.913 275.975 168.357 275.76 167.838C275.545 167.319 275.229 166.847 274.832 166.45C274.434 166.052 273.962 165.737 273.443 165.522C272.924 165.307 272.367 165.197 271.805 165.197C271.243 165.197 270.686 165.308 270.167 165.523C269.648 165.739 269.176 166.054 268.779 166.452C267.976 167.255 267.526 168.344 267.526 169.479C267.526 170.614 267.978 171.703 268.781 172.505C269.584 173.308 270.673 173.758 271.808 173.758V173.757Z" fill="#616A74"/>
<path d="M341.02 176.35C340.41 175.245 339.662 174.35 338.912 173.726C338.014 174.392 336.927 174.753 335.809 174.756C334.69 174.753 333.602 174.392 332.703 173.726C331.953 174.351 331.205 175.246 330.593 176.349C329.17 178.911 329.013 181.539 330.243 182.222C330.793 182.529 331.369 182.3 331.965 181.726C331.854 182.344 331.799 182.971 331.799 183.599C331.799 186.531 332.939 188.906 334.342 188.906C335.188 188.906 335.607 188.041 335.808 186.716C336.008 188.041 336.428 188.906 337.27 188.906C338.676 188.906 339.815 186.531 339.815 183.599C339.815 182.939 339.755 182.309 339.647 181.726C340.244 182.3 340.82 182.529 341.371 182.222C342.599 181.54 342.441 178.912 341.018 176.348L341.02 176.35ZM335.808 173.757C336.37 173.757 336.927 173.646 337.446 173.431C337.965 173.215 338.437 172.9 338.834 172.502C339.231 172.105 339.546 171.633 339.761 171.114C339.976 170.594 340.087 170.038 340.087 169.476C340.086 168.913 339.975 168.357 339.76 167.838C339.545 167.319 339.229 166.847 338.832 166.45C338.434 166.052 337.962 165.737 337.443 165.522C336.924 165.307 336.367 165.197 335.805 165.197C335.243 165.197 334.686 165.308 334.167 165.523C333.648 165.739 333.176 166.054 332.779 166.452C331.976 167.255 331.526 168.344 331.526 169.479C331.526 170.614 331.978 171.703 332.781 172.505C333.584 173.308 334.673 173.758 335.808 173.758V173.757Z" fill="#616A74"/>
<path d="M405.02 176.35C404.41 175.245 403.662 174.35 402.912 173.726C402.014 174.392 400.927 174.753 399.809 174.756C398.69 174.753 397.602 174.392 396.703 173.726C395.953 174.351 395.205 175.246 394.593 176.349C393.17 178.911 393.013 181.539 394.243 182.222C394.793 182.529 395.369 182.3 395.965 181.726C395.854 182.344 395.799 182.971 395.799 183.599C395.799 186.531 396.939 188.906 398.342 188.906C399.188 188.906 399.607 188.041 399.808 186.716C400.008 188.041 400.428 188.906 401.27 188.906C402.676 188.906 403.815 186.531 403.815 183.599C403.815 182.939 403.755 182.309 403.647 181.726C404.244 182.3 404.82 182.529 405.371 182.222C406.599 181.54 406.441 178.912 405.018 176.348L405.02 176.35ZM399.808 173.757C400.37 173.757 400.927 173.646 401.446 173.431C401.965 173.215 402.437 172.9 402.834 172.502C403.231 172.105 403.546 171.633 403.761 171.114C403.976 170.594 404.087 170.038 404.087 169.476C404.086 168.913 403.975 168.357 403.76 167.838C403.545 167.319 403.229 166.847 402.832 166.45C402.434 166.052 401.962 165.737 401.443 165.522C400.924 165.307 400.367 165.197 399.805 165.197C399.243 165.197 398.686 165.308 398.167 165.523C397.648 165.739 397.176 166.054 396.779 166.452C395.976 167.255 395.526 168.344 395.526 169.479C395.526 170.614 395.978 171.703 396.781 172.505C397.584 173.308 398.673 173.758 399.808 173.758V173.757Z" fill="#616A74"/>
<path d="M53.02 144.35C52.41 143.245 51.662 142.35 50.912 141.726C50.0143 142.392 48.9268 142.753 47.809 142.756C46.6903 142.753 45.6018 142.392 44.703 141.726C43.953 142.351 43.205 143.246 42.593 144.349C41.17 146.911 41.013 149.539 42.243 150.222C42.793 150.529 43.369 150.3 43.965 149.726C43.8543 150.344 43.7987 150.971 43.799 151.599C43.799 154.531 44.939 156.906 46.342 156.906C47.188 156.906 47.607 156.041 47.808 154.716C48.008 156.041 48.428 156.906 49.27 156.906C50.676 156.906 51.815 154.531 51.815 151.599C51.815 150.939 51.755 150.309 51.647 149.726C52.244 150.3 52.82 150.529 53.371 150.222C54.599 149.54 54.441 146.912 53.018 144.348L53.02 144.35ZM47.808 141.757C48.3701 141.757 48.9266 141.646 49.4458 141.431C49.965 141.215 50.4367 140.9 50.834 140.502C51.2313 140.105 51.5464 139.633 51.7613 139.114C51.9762 138.594 52.0867 138.038 52.0865 137.476C52.0863 136.913 51.9754 136.357 51.7601 135.838C51.5449 135.319 51.2294 134.847 50.8319 134.45C50.4343 134.052 49.9624 133.737 49.443 133.522C48.9237 133.307 48.3671 133.197 47.805 133.197C47.2429 133.197 46.6863 133.308 46.167 133.523C45.6478 133.739 45.176 134.054 44.7787 134.452C43.9762 135.255 43.5256 136.344 43.526 137.479C43.5264 138.614 43.9778 139.703 44.7808 140.505C45.5838 141.308 46.6727 141.758 47.808 141.758V141.757Z" fill="#616A74"/>
<path d="M117.02 144.35C116.41 143.245 115.662 142.35 114.912 141.726C114.014 142.392 112.927 142.753 111.809 142.756C110.69 142.753 109.602 142.392 108.703 141.726C107.953 142.351 107.205 143.246 106.593 144.349C105.17 146.911 105.013 149.539 106.243 150.222C106.793 150.529 107.369 150.3 107.965 149.726C107.854 150.344 107.799 150.971 107.799 151.599C107.799 154.531 108.939 156.906 110.342 156.906C111.188 156.906 111.607 156.041 111.808 154.716C112.008 156.041 112.428 156.906 113.27 156.906C114.676 156.906 115.815 154.531 115.815 151.599C115.815 150.939 115.755 150.309 115.647 149.726C116.244 150.3 116.82 150.529 117.371 150.222C118.599 149.54 118.441 146.912 117.018 144.348L117.02 144.35ZM111.808 141.757C112.37 141.757 112.927 141.646 113.446 141.431C113.965 141.215 114.437 140.9 114.834 140.502C115.231 140.105 115.546 139.633 115.761 139.114C115.976 138.594 116.087 138.038 116.087 137.476C116.086 136.913 115.975 136.357 115.76 135.838C115.545 135.319 115.229 134.847 114.832 134.45C114.434 134.052 113.962 133.737 113.443 133.522C112.924 133.307 112.367 133.197 111.805 133.197C111.243 133.197 110.686 133.308 110.167 133.523C109.648 133.739 109.176 134.054 108.779 134.452C107.976 135.255 107.526 136.344 107.526 137.479C107.526 138.614 107.978 139.703 108.781 140.505C109.584 141.308 110.673 141.758 111.808 141.758V141.757Z" fill="#616A74"/>
<path d="M181.02 144.35C180.41 143.245 179.662 142.35 178.912 141.726C178.014 142.392 176.927 142.753 175.809 142.756C174.69 142.753 173.602 142.392 172.703 141.726C171.953 142.351 171.205 143.246 170.593 144.349C169.17 146.911 169.013 149.539 170.243 150.222C170.793 150.529 171.369 150.3 171.965 149.726C171.854 150.344 171.799 150.971 171.799 151.599C171.799 154.531 172.939 156.906 174.342 156.906C175.188 156.906 175.607 156.041 175.808 154.716C176.008 156.041 176.428 156.906 177.27 156.906C178.676 156.906 179.815 154.531 179.815 151.599C179.815 150.939 179.755 150.309 179.647 149.726C180.244 150.3 180.82 150.529 181.371 150.222C182.599 149.54 182.441 146.912 181.018 144.348L181.02 144.35ZM175.808 141.757C176.37 141.757 176.927 141.646 177.446 141.431C177.965 141.215 178.437 140.9 178.834 140.502C179.231 140.105 179.546 139.633 179.761 139.114C179.976 138.594 180.087 138.038 180.087 137.476C180.086 136.913 179.975 136.357 179.76 135.838C179.545 135.319 179.229 134.847 178.832 134.45C178.434 134.052 177.962 133.737 177.443 133.522C176.924 133.307 176.367 133.197 175.805 133.197C175.243 133.197 174.686 133.308 174.167 133.523C173.648 133.739 173.176 134.054 172.779 134.452C171.976 135.255 171.526 136.344 171.526 137.479C171.526 138.614 171.978 139.703 172.781 140.505C173.584 141.308 174.673 141.758 175.808 141.758V141.757Z" fill="#616A74"/>
<path d="M245.02 144.35C244.41 143.245 243.662 142.35 242.912 141.726C242.014 142.392 240.927 142.753 239.809 142.756C238.69 142.753 237.602 142.392 236.703 141.726C235.953 142.351 235.205 143.246 234.593 144.349C233.17 146.911 233.013 149.539 234.243 150.222C234.793 150.529 235.369 150.3 235.965 149.726C235.854 150.344 235.799 150.971 235.799 151.599C235.799 154.531 236.939 156.906 238.342 156.906C239.188 156.906 239.607 156.041 239.808 154.716C240.008 156.041 240.428 156.906 241.27 156.906C242.676 156.906 243.815 154.531 243.815 151.599C243.815 150.939 243.755 150.309 243.647 149.726C244.244 150.3 244.82 150.529 245.371 150.222C246.599 149.54 246.441 146.912 245.018 144.348L245.02 144.35ZM239.808 141.757C240.37 141.757 240.927 141.646 241.446 141.431C241.965 141.215 242.437 140.9 242.834 140.502C243.231 140.105 243.546 139.633 243.761 139.114C243.976 138.594 244.087 138.038 244.087 137.476C244.086 136.913 243.975 136.357 243.76 135.838C243.545 135.319 243.229 134.847 242.832 134.45C242.434 134.052 241.962 133.737 241.443 133.522C240.924 133.307 240.367 133.197 239.805 133.197C239.243 133.197 238.686 133.308 238.167 133.523C237.648 133.739 237.176 134.054 236.779 134.452C235.976 135.255 235.526 136.344 235.526 137.479C235.526 138.614 235.978 139.703 236.781 140.505C237.584 141.308 238.673 141.758 239.808 141.758V141.757Z" fill="#616A74"/>
<path d="M309.02 144.35C308.41 143.245 307.662 142.35 306.912 141.726C306.014 142.392 304.927 142.753 303.809 142.756C302.69 142.753 301.602 142.392 300.703 141.726C299.953 142.351 299.205 143.246 298.593 144.349C297.17 146.911 297.013 149.539 298.243 150.222C298.793 150.529 299.369 150.3 299.965 149.726C299.854 150.344 299.799 150.971 299.799 151.599C299.799 154.531 300.939 156.906 302.342 156.906C303.188 156.906 303.607 156.041 303.808 154.716C304.008 156.041 304.428 156.906 305.27 156.906C306.676 156.906 307.815 154.531 307.815 151.599C307.815 150.939 307.755 150.309 307.647 149.726C308.244 150.3 308.82 150.529 309.371 150.222C310.599 149.54 310.441 146.912 309.018 144.348L309.02 144.35ZM303.808 141.757C304.37 141.757 304.927 141.646 305.446 141.431C305.965 141.215 306.437 140.9 306.834 140.502C307.231 140.105 307.546 139.633 307.761 139.114C307.976 138.594 308.087 138.038 308.087 137.476C308.086 136.913 307.975 136.357 307.76 135.838C307.545 135.319 307.229 134.847 306.832 134.45C306.434 134.052 305.962 133.737 305.443 133.522C304.924 133.307 304.367 133.197 303.805 133.197C303.243 133.197 302.686 133.308 302.167 133.523C301.648 133.739 301.176 134.054 300.779 134.452C299.976 135.255 299.526 136.344 299.526 137.479C299.526 138.614 299.978 139.703 300.781 140.505C301.584 141.308 302.673 141.758 303.808 141.758V141.757Z" fill="#616A74"/>
<path d="M373.02 144.35C372.41 143.245 371.662 142.35 370.912 141.726C370.014 142.392 368.927 142.753 367.809 142.756C366.69 142.753 365.602 142.392 364.703 141.726C363.953 142.351 363.205 143.246 362.593 144.349C361.17 146.911 361.013 149.539 362.243 150.222C362.793 150.529 363.369 150.3 363.965 149.726C363.854 150.344 363.799 150.971 363.799 151.599C363.799 154.531 364.939 156.906 366.342 156.906C367.188 156.906 367.607 156.041 367.808 154.716C368.008 156.041 368.428 156.906 369.27 156.906C370.676 156.906 371.815 154.531 371.815 151.599C371.815 150.939 371.755 150.309 371.647 149.726C372.244 150.3 372.82 150.529 373.371 150.222C374.599 149.54 374.441 146.912 373.018 144.348L373.02 144.35ZM367.808 141.757C368.37 141.757 368.927 141.646 369.446 141.431C369.965 141.215 370.437 140.9 370.834 140.502C371.231 140.105 371.546 139.633 371.761 139.114C371.976 138.594 372.087 138.038 372.087 137.476C372.086 136.913 371.975 136.357 371.76 135.838C371.545 135.319 371.229 134.847 370.832 134.45C370.434 134.052 369.962 133.737 369.443 133.522C368.924 133.307 368.367 133.197 367.805 133.197C367.243 133.197 366.686 133.308 366.167 133.523C365.648 133.739 365.176 134.054 364.779 134.452C363.976 135.255 363.526 136.344 363.526 137.479C363.526 138.614 363.978 139.703 364.781 140.505C365.584 141.308 366.673 141.758 367.808 141.758V141.757Z" fill="#616A74"/>
<path d="M437.02 144.35C436.41 143.245 435.662 142.35 434.912 141.726C434.014 142.392 432.927 142.753 431.809 142.756C430.69 142.753 429.602 142.392 428.703 141.726C427.953 142.351 427.205 143.246 426.593 144.349C425.17 146.911 425.013 149.539 426.243 150.222C426.793 150.529 427.369 150.3 427.965 149.726C427.854 150.344 427.799 150.971 427.799 151.599C427.799 154.531 428.939 156.906 430.342 156.906C431.188 156.906 431.607 156.041 431.808 154.716C432.008 156.041 432.428 156.906 433.27 156.906C434.676 156.906 435.815 154.531 435.815 151.599C435.815 150.939 435.755 150.309 435.647 149.726C436.244 150.3 436.82 150.529 437.371 150.222C438.599 149.54 438.441 146.912 437.018 144.348L437.02 144.35ZM431.808 141.757C432.37 141.757 432.927 141.646 433.446 141.431C433.965 141.215 434.437 140.9 434.834 140.502C435.231 140.105 435.546 139.633 435.761 139.114C435.976 138.594 436.087 138.038 436.087 137.476C436.086 136.913 435.975 136.357 435.76 135.838C435.545 135.319 435.229 134.847 434.832 134.45C434.434 134.052 433.962 133.737 433.443 133.522C432.924 133.307 432.367 133.197 431.805 133.197C431.243 133.197 430.686 133.308 430.167 133.523C429.648 133.739 429.176 134.054 428.779 134.452C427.976 135.255 427.526 136.344 427.526 137.479C427.526 138.614 427.978 139.703 428.781 140.505C429.584 141.308 430.673 141.758 431.808 141.758V141.757Z" fill="#616A74"/>
<path d="M21.02 48.35C20.41 47.245 19.662 46.35 18.912 45.726C18.0143 46.3921 16.9268 46.7531 15.809 46.756C14.6903 46.7531 13.6018 46.3921 12.703 45.726C11.953 46.351 11.205 47.246 10.593 48.349C9.17001 50.911 9.01301 53.539 10.243 54.222C10.793 54.529 11.369 54.3 11.965 53.726C11.8543 54.3442 11.7987 54.971 11.799 55.599C11.799 58.531 12.939 60.906 14.342 60.906C15.188 60.906 15.607 60.041 15.808 58.716C16.008 60.041 16.428 60.906 17.27 60.906C18.676 60.906 19.815 58.531 19.815 55.599C19.815 54.939 19.755 54.309 19.647 53.726C20.244 54.3 20.82 54.529 21.371 54.222C22.599 53.54 22.441 50.912 21.018 48.348L21.02 48.35ZM15.808 45.757C16.3701 45.7568 16.9266 45.6459 17.4458 45.4307C17.965 45.2154 18.4367 44.9 18.834 44.5024C19.2313 44.1048 19.5464 43.6329 19.7613 43.1135C19.9762 42.5942 20.0867 42.0376 20.0865 41.4755C20.0863 40.9135 19.9754 40.3569 19.7601 39.8378C19.5449 39.3186 19.2294 38.8468 18.8319 38.4495C18.4343 38.0522 17.9624 37.7372 17.443 37.5222C16.9237 37.3073 16.3671 37.1968 15.805 37.197C15.2429 37.1972 14.6863 37.3081 14.167 37.5234C13.6478 37.7387 13.176 38.0542 12.7787 38.4518C11.9762 39.2548 11.5256 40.3438 11.526 41.479C11.5264 42.6143 11.9778 43.7029 12.7808 44.5054C13.5838 45.3078 14.6727 45.7584 15.808 45.758V45.757Z" fill="#616A74"/>
<path d="M85.02 48.35C84.41 47.245 83.662 46.35 82.912 45.726C82.0143 46.3921 80.9268 46.7531 79.809 46.756C78.6903 46.7531 77.6018 46.3921 76.703 45.726C75.953 46.351 75.205 47.246 74.593 48.349C73.17 50.911 73.013 53.539 74.243 54.222C74.793 54.529 75.369 54.3 75.965 53.726C75.8543 54.3442 75.7987 54.971 75.799 55.599C75.799 58.531 76.939 60.906 78.342 60.906C79.188 60.906 79.607 60.041 79.808 58.716C80.008 60.041 80.428 60.906 81.27 60.906C82.676 60.906 83.815 58.531 83.815 55.599C83.815 54.939 83.755 54.309 83.647 53.726C84.244 54.3 84.82 54.529 85.371 54.222C86.599 53.54 86.441 50.912 85.018 48.348L85.02 48.35ZM79.808 45.757C80.3701 45.7568 80.9266 45.6459 81.4458 45.4307C81.965 45.2154 82.4367 44.9 82.834 44.5024C83.2313 44.1048 83.5464 43.6329 83.7613 43.1135C83.9762 42.5942 84.0867 42.0376 84.0865 41.4755C84.0863 40.9135 83.9754 40.3569 83.7601 39.8378C83.5449 39.3186 83.2294 38.8468 82.8319 38.4495C82.4343 38.0522 81.9624 37.7372 81.443 37.5222C80.9237 37.3073 80.3671 37.1968 79.805 37.197C79.2429 37.1972 78.6863 37.3081 78.167 37.5234C77.6478 37.7387 77.176 38.0542 76.7787 38.4518C75.9762 39.2548 75.5256 40.3438 75.526 41.479C75.5264 42.6143 75.9778 43.7029 76.7808 44.5054C77.5838 45.3078 78.6727 45.7584 79.808 45.758V45.757Z" fill="#616A74"/>
<path d="M149.02 48.35C148.41 47.245 147.662 46.35 146.912 45.726C146.014 46.3921 144.927 46.7531 143.809 46.756C142.69 46.7531 141.602 46.3921 140.703 45.726C139.953 46.351 139.205 47.246 138.593 48.349C137.17 50.911 137.013 53.539 138.243 54.222C138.793 54.529 139.369 54.3 139.965 53.726C139.854 54.3442 139.799 54.971 139.799 55.599C139.799 58.531 140.939 60.906 142.342 60.906C143.188 60.906 143.607 60.041 143.808 58.716C144.008 60.041 144.428 60.906 145.27 60.906C146.676 60.906 147.815 58.531 147.815 55.599C147.815 54.939 147.755 54.309 147.647 53.726C148.244 54.3 148.82 54.529 149.371 54.222C150.599 53.54 150.441 50.912 149.018 48.348L149.02 48.35ZM143.808 45.757C144.37 45.7568 144.927 45.6459 145.446 45.4307C145.965 45.2154 146.437 44.9 146.834 44.5024C147.231 44.1048 147.546 43.6329 147.761 43.1135C147.976 42.5942 148.087 42.0376 148.087 41.4755C148.086 40.9135 147.975 40.3569 147.76 39.8378C147.545 39.3186 147.229 38.8468 146.832 38.4495C146.434 38.0522 145.962 37.7372 145.443 37.5222C144.924 37.3073 144.367 37.1968 143.805 37.197C143.243 37.1972 142.686 37.3081 142.167 37.5234C141.648 37.7387 141.176 38.0542 140.779 38.4518C139.976 39.2548 139.526 40.3438 139.526 41.479C139.526 42.6143 139.978 43.7029 140.781 44.5054C141.584 45.3078 142.673 45.7584 143.808 45.758V45.757Z" fill="#616A74"/>
<path d="M213.02 48.35C212.41 47.245 211.662 46.35 210.912 45.726C210.014 46.3921 208.927 46.7531 207.809 46.756C206.69 46.7531 205.602 46.3921 204.703 45.726C203.953 46.351 203.205 47.246 202.593 48.349C201.17 50.911 201.013 53.539 202.243 54.222C202.793 54.529 203.369 54.3 203.965 53.726C203.854 54.3442 203.799 54.971 203.799 55.599C203.799 58.531 204.939 60.906 206.342 60.906C207.188 60.906 207.607 60.041 207.808 58.716C208.008 60.041 208.428 60.906 209.27 60.906C210.676 60.906 211.815 58.531 211.815 55.599C211.815 54.939 211.755 54.309 211.647 53.726C212.244 54.3 212.82 54.529 213.371 54.222C214.599 53.54 214.441 50.912 213.018 48.348L213.02 48.35ZM207.808 45.757C208.37 45.7568 208.927 45.6459 209.446 45.4307C209.965 45.2154 210.437 44.9 210.834 44.5024C211.231 44.1048 211.546 43.6329 211.761 43.1135C211.976 42.5942 212.087 42.0376 212.087 41.4755C212.086 40.9135 211.975 40.3569 211.76 39.8378C211.545 39.3186 211.229 38.8468 210.832 38.4495C210.434 38.0522 209.962 37.7372 209.443 37.5222C208.924 37.3073 208.367 37.1968 207.805 37.197C207.243 37.1972 206.686 37.3081 206.167 37.5234C205.648 37.7387 205.176 38.0542 204.779 38.4518C203.976 39.2548 203.526 40.3438 203.526 41.479C203.526 42.6143 203.978 43.7029 204.781 44.5054C205.584 45.3078 206.673 45.7584 207.808 45.758V45.757Z" fill="#616A74"/>
<path d="M277.02 48.35C276.41 47.245 275.662 46.35 274.912 45.726C274.014 46.3921 272.927 46.7531 271.809 46.756C270.69 46.7531 269.602 46.3921 268.703 45.726C267.953 46.351 267.205 47.246 266.593 48.349C265.17 50.911 265.013 53.539 266.243 54.222C266.793 54.529 267.369 54.3 267.965 53.726C267.854 54.3442 267.799 54.971 267.799 55.599C267.799 58.531 268.939 60.906 270.342 60.906C271.188 60.906 271.607 60.041 271.808 58.716C272.008 60.041 272.428 60.906 273.27 60.906C274.676 60.906 275.815 58.531 275.815 55.599C275.815 54.939 275.755 54.309 275.647 53.726C276.244 54.3 276.82 54.529 277.371 54.222C278.599 53.54 278.441 50.912 277.018 48.348L277.02 48.35ZM271.808 45.757C272.37 45.7568 272.927 45.6459 273.446 45.4307C273.965 45.2154 274.437 44.9 274.834 44.5024C275.231 44.1048 275.546 43.6329 275.761 43.1135C275.976 42.5942 276.087 42.0376 276.087 41.4755C276.086 40.9135 275.975 40.3569 275.76 39.8378C275.545 39.3186 275.229 38.8468 274.832 38.4495C274.434 38.0522 273.962 37.7372 273.443 37.5222C272.924 37.3073 272.367 37.1968 271.805 37.197C271.243 37.1972 270.686 37.3081 270.167 37.5234C269.648 37.7387 269.176 38.0542 268.779 38.4518C267.976 39.2548 267.526 40.3438 267.526 41.479C267.526 42.6143 267.978 43.7029 268.781 44.5054C269.584 45.3078 270.673 45.7584 271.808 45.758V45.757Z" fill="#616A74"/>
<path d="M341.02 48.35C340.41 47.245 339.662 46.35 338.912 45.726C338.014 46.3921 336.927 46.7531 335.809 46.756C334.69 46.7531 333.602 46.3921 332.703 45.726C331.953 46.351 331.205 47.246 330.593 48.349C329.17 50.911 329.013 53.539 330.243 54.222C330.793 54.529 331.369 54.3 331.965 53.726C331.854 54.3442 331.799 54.971 331.799 55.599C331.799 58.531 332.939 60.906 334.342 60.906C335.188 60.906 335.607 60.041 335.808 58.716C336.008 60.041 336.428 60.906 337.27 60.906C338.676 60.906 339.815 58.531 339.815 55.599C339.815 54.939 339.755 54.309 339.647 53.726C340.244 54.3 340.82 54.529 341.371 54.222C342.599 53.54 342.441 50.912 341.018 48.348L341.02 48.35ZM335.808 45.757C336.37 45.7568 336.927 45.6459 337.446 45.4307C337.965 45.2154 338.437 44.9 338.834 44.5024C339.231 44.1048 339.546 43.6329 339.761 43.1135C339.976 42.5942 340.087 42.0376 340.087 41.4755C340.086 40.9135 339.975 40.3569 339.76 39.8378C339.545 39.3186 339.229 38.8468 338.832 38.4495C338.434 38.0522 337.962 37.7372 337.443 37.5222C336.924 37.3073 336.367 37.1968 335.805 37.197C335.243 37.1972 334.686 37.3081 334.167 37.5234C333.648 37.7387 333.176 38.0542 332.779 38.4518C331.976 39.2548 331.526 40.3438 331.526 41.479C331.526 42.6143 331.978 43.7029 332.781 44.5054C333.584 45.3078 334.673 45.7584 335.808 45.758V45.757Z" fill="#616A74"/>
<path d="M405.02 48.35C404.41 47.245 403.662 46.35 402.912 45.726C402.014 46.3921 400.927 46.7531 399.809 46.756C398.69 46.7531 397.602 46.3921 396.703 45.726C395.953 46.351 395.205 47.246 394.593 48.349C393.17 50.911 393.013 53.539 394.243 54.222C394.793 54.529 395.369 54.3 395.965 53.726C395.854 54.3442 395.799 54.971 395.799 55.599C395.799 58.531 396.939 60.906 398.342 60.906C399.188 60.906 399.607 60.041 399.808 58.716C400.008 60.041 400.428 60.906 401.27 60.906C402.676 60.906 403.815 58.531 403.815 55.599C403.815 54.939 403.755 54.309 403.647 53.726C404.244 54.3 404.82 54.529 405.371 54.222C406.599 53.54 406.441 50.912 405.018 48.348L405.02 48.35ZM399.808 45.757C400.37 45.7568 400.927 45.6459 401.446 45.4307C401.965 45.2154 402.437 44.9 402.834 44.5024C403.231 44.1048 403.546 43.6329 403.761 43.1135C403.976 42.5942 404.087 42.0376 404.087 41.4755C404.086 40.9135 403.975 40.3569 403.76 39.8378C403.545 39.3186 403.229 38.8468 402.832 38.4495C402.434 38.0522 401.962 37.7372 401.443 37.5222C400.924 37.3073 400.367 37.1968 399.805 37.197C399.243 37.1972 398.686 37.3081 398.167 37.5234C397.648 37.7387 397.176 38.0542 396.779 38.4518C395.976 39.2548 395.526 40.3438 395.526 41.479C395.526 42.6143 395.978 43.7029 396.781 44.5054C397.584 45.3078 398.673 45.7584 399.808 45.758V45.757Z" fill="#616A74"/>
<path d="M53.02 16.35C52.41 15.245 51.662 14.35 50.912 13.726C50.0143 14.3921 48.9268 14.7531 47.809 14.756C46.6903 14.7531 45.6018 14.3921 44.703 13.726C43.953 14.351 43.205 15.246 42.593 16.349C41.17 18.911 41.013 21.539 42.243 22.222C42.793 22.529 43.369 22.3 43.965 21.726C43.8543 22.3442 43.7987 22.971 43.799 23.599C43.799 26.531 44.939 28.906 46.342 28.906C47.188 28.906 47.607 28.041 47.808 26.716C48.008 28.041 48.428 28.906 49.27 28.906C50.676 28.906 51.815 26.531 51.815 23.599C51.815 22.939 51.755 22.309 51.647 21.726C52.244 22.3 52.82 22.529 53.371 22.222C54.599 21.54 54.441 18.912 53.018 16.348L53.02 16.35ZM47.808 13.757C48.3701 13.7568 48.9266 13.6459 49.4458 13.4307C49.965 13.2154 50.4367 12.9 50.834 12.5024C51.2313 12.1048 51.5464 11.6329 51.7613 11.1135C51.9762 10.5942 52.0867 10.0376 52.0865 9.47552C52.0863 8.91346 51.9754 8.35695 51.7601 7.83775C51.5449 7.31855 51.2294 6.84684 50.8319 6.44954C50.4343 6.05225 49.9624 5.73715 49.443 5.52224C48.9237 5.30734 48.3671 5.19682 47.805 5.19702C47.2429 5.19722 46.6863 5.30813 46.167 5.52343C45.6478 5.73873 45.176 6.05419 44.7787 6.45181C43.9762 7.25484 43.5256 8.34376 43.526 9.47902C43.5264 10.6143 43.9778 11.7029 44.7808 12.5054C45.5838 13.3078 46.6727 13.7584 47.808 13.758V13.757Z" fill="#616A74"/>
<path d="M117.02 16.35C116.41 15.245 115.662 14.35 114.912 13.726C114.014 14.3921 112.927 14.7531 111.809 14.756C110.69 14.7531 109.602 14.3921 108.703 13.726C107.953 14.351 107.205 15.246 106.593 16.349C105.17 18.911 105.013 21.539 106.243 22.222C106.793 22.529 107.369 22.3 107.965 21.726C107.854 22.3442 107.799 22.971 107.799 23.599C107.799 26.531 108.939 28.906 110.342 28.906C111.188 28.906 111.607 28.041 111.808 26.716C112.008 28.041 112.428 28.906 113.27 28.906C114.676 28.906 115.815 26.531 115.815 23.599C115.815 22.939 115.755 22.309 115.647 21.726C116.244 22.3 116.82 22.529 117.371 22.222C118.599 21.54 118.441 18.912 117.018 16.348L117.02 16.35ZM111.808 13.757C112.37 13.7568 112.927 13.6459 113.446 13.4307C113.965 13.2154 114.437 12.9 114.834 12.5024C115.231 12.1048 115.546 11.6329 115.761 11.1135C115.976 10.5942 116.087 10.0376 116.087 9.47552C116.086 8.91346 115.975 8.35695 115.76 7.83775C115.545 7.31855 115.229 6.84684 114.832 6.44954C114.434 6.05225 113.962 5.73715 113.443 5.52224C112.924 5.30734 112.367 5.19682 111.805 5.19702C111.243 5.19722 110.686 5.30813 110.167 5.52343C109.648 5.73873 109.176 6.05419 108.779 6.45181C107.976 7.25484 107.526 8.34376 107.526 9.47902C107.526 10.6143 107.978 11.7029 108.781 12.5054C109.584 13.3078 110.673 13.7584 111.808 13.758V13.757Z" fill="#616A74"/>
<path d="M181.02 16.35C180.41 15.245 179.662 14.35 178.912 13.726C178.014 14.3921 176.927 14.7531 175.809 14.756C174.69 14.7531 173.602 14.3921 172.703 13.726C171.953 14.351 171.205 15.246 170.593 16.349C169.17 18.911 169.013 21.539 170.243 22.222C170.793 22.529 171.369 22.3 171.965 21.726C171.854 22.3442 171.799 22.971 171.799 23.599C171.799 26.531 172.939 28.906 174.342 28.906C175.188 28.906 175.607 28.041 175.808 26.716C176.008 28.041 176.428 28.906 177.27 28.906C178.676 28.906 179.815 26.531 179.815 23.599C179.815 22.939 179.755 22.309 179.647 21.726C180.244 22.3 180.82 22.529 181.371 22.222C182.599 21.54 182.441 18.912 181.018 16.348L181.02 16.35ZM175.808 13.757C176.37 13.7568 176.927 13.6459 177.446 13.4307C177.965 13.2154 178.437 12.9 178.834 12.5024C179.231 12.1048 179.546 11.6329 179.761 11.1135C179.976 10.5942 180.087 10.0376 180.087 9.47552C180.086 8.91346 179.975 8.35695 179.76 7.83775C179.545 7.31855 179.229 6.84684 178.832 6.44954C178.434 6.05225 177.962 5.73715 177.443 5.52224C176.924 5.30734 176.367 5.19682 175.805 5.19702C175.243 5.19722 174.686 5.30813 174.167 5.52343C173.648 5.73873 173.176 6.05419 172.779 6.45181C171.976 7.25484 171.526 8.34376 171.526 9.47902C171.526 10.6143 171.978 11.7029 172.781 12.5054C173.584 13.3078 174.673 13.7584 175.808 13.758V13.757Z" fill="#616A74"/>
<path d="M245.02 16.35C244.41 15.245 243.662 14.35 242.912 13.726C242.014 14.3921 240.927 14.7531 239.809 14.756C238.69 14.7531 237.602 14.3921 236.703 13.726C235.953 14.351 235.205 15.246 234.593 16.349C233.17 18.911 233.013 21.539 234.243 22.222C234.793 22.529 235.369 22.3 235.965 21.726C235.854 22.3442 235.799 22.971 235.799 23.599C235.799 26.531 236.939 28.906 238.342 28.906C239.188 28.906 239.607 28.041 239.808 26.716C240.008 28.041 240.428 28.906 241.27 28.906C242.676 28.906 243.815 26.531 243.815 23.599C243.815 22.939 243.755 22.309 243.647 21.726C244.244 22.3 244.82 22.529 245.371 22.222C246.599 21.54 246.441 18.912 245.018 16.348L245.02 16.35ZM239.808 13.757C240.37 13.7568 240.927 13.6459 241.446 13.4307C241.965 13.2154 242.437 12.9 242.834 12.5024C243.231 12.1048 243.546 11.6329 243.761 11.1135C243.976 10.5942 244.087 10.0376 244.087 9.47552C244.086 8.91346 243.975 8.35695 243.76 7.83775C243.545 7.31855 243.229 6.84684 242.832 6.44954C242.434 6.05225 241.962 5.73715 241.443 5.52224C240.924 5.30734 240.367 5.19682 239.805 5.19702C239.243 5.19722 238.686 5.30813 238.167 5.52343C237.648 5.73873 237.176 6.05419 236.779 6.45181C235.976 7.25484 235.526 8.34376 235.526 9.47902C235.526 10.6143 235.978 11.7029 236.781 12.5054C237.584 13.3078 238.673 13.7584 239.808 13.758V13.757Z" fill="#616A74"/>
<path d="M309.02 16.35C308.41 15.245 307.662 14.35 306.912 13.726C306.014 14.3921 304.927 14.7531 303.809 14.756C302.69 14.7531 301.602 14.3921 300.703 13.726C299.953 14.351 299.205 15.246 298.593 16.349C297.17 18.911 297.013 21.539 298.243 22.222C298.793 22.529 299.369 22.3 299.965 21.726C299.854 22.3442 299.799 22.971 299.799 23.599C299.799 26.531 300.939 28.906 302.342 28.906C303.188 28.906 303.607 28.041 303.808 26.716C304.008 28.041 304.428 28.906 305.27 28.906C306.676 28.906 307.815 26.531 307.815 23.599C307.815 22.939 307.755 22.309 307.647 21.726C308.244 22.3 308.82 22.529 309.371 22.222C310.599 21.54 310.441 18.912 309.018 16.348L309.02 16.35ZM303.808 13.757C304.37 13.7568 304.927 13.6459 305.446 13.4307C305.965 13.2154 306.437 12.9 306.834 12.5024C307.231 12.1048 307.546 11.6329 307.761 11.1135C307.976 10.5942 308.087 10.0376 308.087 9.47552C308.086 8.91346 307.975 8.35695 307.76 7.83775C307.545 7.31855 307.229 6.84684 306.832 6.44954C306.434 6.05225 305.962 5.73715 305.443 5.52224C304.924 5.30734 304.367 5.19682 303.805 5.19702C303.243 5.19722 302.686 5.30813 302.167 5.52343C301.648 5.73873 301.176 6.05419 300.779 6.45181C299.976 7.25484 299.526 8.34376 299.526 9.47902C299.526 10.6143 299.978 11.7029 300.781 12.5054C301.584 13.3078 302.673 13.7584 303.808 13.758V13.757Z" fill="#616A74"/>
<path d="M373.02 16.35C372.41 15.245 371.662 14.35 370.912 13.726C370.014 14.3921 368.927 14.7531 367.809 14.756C366.69 14.7531 365.602 14.3921 364.703 13.726C363.953 14.351 363.205 15.246 362.593 16.349C361.17 18.911 361.013 21.539 362.243 22.222C362.793 22.529 363.369 22.3 363.965 21.726C363.854 22.3442 363.799 22.971 363.799 23.599C363.799 26.531 364.939 28.906 366.342 28.906C367.188 28.906 367.607 28.041 367.808 26.716C368.008 28.041 368.428 28.906 369.27 28.906C370.676 28.906 371.815 26.531 371.815 23.599C371.815 22.939 371.755 22.309 371.647 21.726C372.244 22.3 372.82 22.529 373.371 22.222C374.599 21.54 374.441 18.912 373.018 16.348L373.02 16.35ZM367.808 13.757C368.37 13.7568 368.927 13.6459 369.446 13.4307C369.965 13.2154 370.437 12.9 370.834 12.5024C371.231 12.1048 371.546 11.6329 371.761 11.1135C371.976 10.5942 372.087 10.0376 372.087 9.47552C372.086 8.91346 371.975 8.35695 371.76 7.83775C371.545 7.31855 371.229 6.84684 370.832 6.44954C370.434 6.05225 369.962 5.73715 369.443 5.52224C368.924 5.30734 368.367 5.19682 367.805 5.19702C367.243 5.19722 366.686 5.30813 366.167 5.52343C365.648 5.73873 365.176 6.05419 364.779 6.45181C363.976 7.25484 363.526 8.34376 363.526 9.47902C363.526 10.6143 363.978 11.7029 364.781 12.5054C365.584 13.3078 366.673 13.7584 367.808 13.758V13.757Z" fill="#616A74"/>
<path d="M437.02 16.35C436.41 15.245 435.662 14.35 434.912 13.726C434.014 14.3921 432.927 14.7531 431.809 14.756C430.69 14.7531 429.602 14.3921 428.703 13.726C427.953 14.351 427.205 15.246 426.593 16.349C425.17 18.911 425.013 21.539 426.243 22.222C426.793 22.529 427.369 22.3 427.965 21.726C427.854 22.3442 427.799 22.971 427.799 23.599C427.799 26.531 428.939 28.906 430.342 28.906C431.188 28.906 431.607 28.041 431.808 26.716C432.008 28.041 432.428 28.906 433.27 28.906C434.676 28.906 435.815 26.531 435.815 23.599C435.815 22.939 435.755 22.309 435.647 21.726C436.244 22.3 436.82 22.529 437.371 22.222C438.599 21.54 438.441 18.912 437.018 16.348L437.02 16.35ZM431.808 13.757C432.37 13.7568 432.927 13.6459 433.446 13.4307C433.965 13.2154 434.437 12.9 434.834 12.5024C435.231 12.1048 435.546 11.6329 435.761 11.1135C435.976 10.5942 436.087 10.0376 436.087 9.47552C436.086 8.91346 435.975 8.35695 435.76 7.83775C435.545 7.31855 435.229 6.84684 434.832 6.44954C434.434 6.05225 433.962 5.73715 433.443 5.52224C432.924 5.30734 432.367 5.19682 431.805 5.19702C431.243 5.19722 430.686 5.30813 430.167 5.52343C429.648 5.73873 429.176 6.05419 428.779 6.45181C427.976 7.25484 427.526 8.34376 427.526 9.47902C427.526 10.6143 427.978 11.7029 428.781 12.5054C429.584 13.3078 430.673 13.7584 431.808 13.758V13.757Z" fill="#616A74"/>
<path d="M21.02 112.35C20.41 111.245 19.662 110.35 18.912 109.726C18.0143 110.392 16.9268 110.753 15.809 110.756C14.6903 110.753 13.6018 110.392 12.703 109.726C11.953 110.351 11.205 111.246 10.593 112.349C9.17001 114.911 9.01301 117.539 10.243 118.222C10.793 118.529 11.369 118.3 11.965 117.726C11.8543 118.344 11.7987 118.971 11.799 119.599C11.799 122.531 12.939 124.906 14.342 124.906C15.188 124.906 15.607 124.041 15.808 122.716C16.008 124.041 16.428 124.906 17.27 124.906C18.676 124.906 19.815 122.531 19.815 119.599C19.815 118.939 19.755 118.309 19.647 117.726C20.244 118.3 20.82 118.529 21.371 118.222C22.599 117.54 22.441 114.912 21.018 112.348L21.02 112.35ZM15.808 109.757C16.3701 109.757 16.9266 109.646 17.4458 109.431C17.965 109.215 18.4367 108.9 18.834 108.502C19.2313 108.105 19.5464 107.633 19.7613 107.114C19.9762 106.594 20.0867 106.038 20.0865 105.476C20.0863 104.913 19.9754 104.357 19.7601 103.838C19.5449 103.319 19.2294 102.847 18.8319 102.45C18.4343 102.052 17.9624 101.737 17.443 101.522C16.9237 101.307 16.3671 101.197 15.805 101.197C15.2429 101.197 14.6863 101.308 14.167 101.523C13.6478 101.739 13.176 102.054 12.7787 102.452C11.9762 103.255 11.5256 104.344 11.526 105.479C11.5264 106.614 11.9778 107.703 12.7808 108.505C13.5838 109.308 14.6727 109.758 15.808 109.758V109.757Z" fill="#616A74"/>
<path d="M85.02 112.35C84.41 111.245 83.662 110.35 82.912 109.726C82.0143 110.392 80.9268 110.753 79.809 110.756C78.6903 110.753 77.6018 110.392 76.703 109.726C75.953 110.351 75.205 111.246 74.593 112.349C73.17 114.911 73.013 117.539 74.243 118.222C74.793 118.529 75.369 118.3 75.965 117.726C75.8543 118.344 75.7987 118.971 75.799 119.599C75.799 122.531 76.939 124.906 78.342 124.906C79.188 124.906 79.607 124.041 79.808 122.716C80.008 124.041 80.428 124.906 81.27 124.906C82.676 124.906 83.815 122.531 83.815 119.599C83.815 118.939 83.755 118.309 83.647 117.726C84.244 118.3 84.82 118.529 85.371 118.222C86.599 117.54 86.441 114.912 85.018 112.348L85.02 112.35ZM79.808 109.757C80.3701 109.757 80.9266 109.646 81.4458 109.431C81.965 109.215 82.4367 108.9 82.834 108.502C83.2313 108.105 83.5464 107.633 83.7613 107.114C83.9762 106.594 84.0867 106.038 84.0865 105.476C84.0863 104.913 83.9754 104.357 83.7601 103.838C83.5449 103.319 83.2294 102.847 82.8319 102.45C82.4343 102.052 81.9624 101.737 81.443 101.522C80.9237 101.307 80.3671 101.197 79.805 101.197C79.2429 101.197 78.6863 101.308 78.167 101.523C77.6478 101.739 77.176 102.054 76.7787 102.452C75.9762 103.255 75.5256 104.344 75.526 105.479C75.5264 106.614 75.9778 107.703 76.7808 108.505C77.5838 109.308 78.6727 109.758 79.808 109.758V109.757Z" fill="#616A74"/>
<path d="M149.02 112.35C148.41 111.245 147.662 110.35 146.912 109.726C146.014 110.392 144.927 110.753 143.809 110.756C142.69 110.753 141.602 110.392 140.703 109.726C139.953 110.351 139.205 111.246 138.593 112.349C137.17 114.911 137.013 117.539 138.243 118.222C138.793 118.529 139.369 118.3 139.965 117.726C139.854 118.344 139.799 118.971 139.799 119.599C139.799 122.531 140.939 124.906 142.342 124.906C143.188 124.906 143.607 124.041 143.808 122.716C144.008 124.041 144.428 124.906 145.27 124.906C146.676 124.906 147.815 122.531 147.815 119.599C147.815 118.939 147.755 118.309 147.647 117.726C148.244 118.3 148.82 118.529 149.371 118.222C150.599 117.54 150.441 114.912 149.018 112.348L149.02 112.35ZM143.808 109.757C144.37 109.757 144.927 109.646 145.446 109.431C145.965 109.215 146.437 108.9 146.834 108.502C147.231 108.105 147.546 107.633 147.761 107.114C147.976 106.594 148.087 106.038 148.087 105.476C148.086 104.913 147.975 104.357 147.76 103.838C147.545 103.319 147.229 102.847 146.832 102.45C146.434 102.052 145.962 101.737 145.443 101.522C144.924 101.307 144.367 101.197 143.805 101.197C143.243 101.197 142.686 101.308 142.167 101.523C141.648 101.739 141.176 102.054 140.779 102.452C139.976 103.255 139.526 104.344 139.526 105.479C139.526 106.614 139.978 107.703 140.781 108.505C141.584 109.308 142.673 109.758 143.808 109.758V109.757Z" fill="#616A74"/>
<path d="M213.02 112.35C212.41 111.245 211.662 110.35 210.912 109.726C210.014 110.392 208.927 110.753 207.809 110.756C206.69 110.753 205.602 110.392 204.703 109.726C203.953 110.351 203.205 111.246 202.593 112.349C201.17 114.911 201.013 117.539 202.243 118.222C202.793 118.529 203.369 118.3 203.965 117.726C203.854 118.344 203.799 118.971 203.799 119.599C203.799 122.531 204.939 124.906 206.342 124.906C207.188 124.906 207.607 124.041 207.808 122.716C208.008 124.041 208.428 124.906 209.27 124.906C210.676 124.906 211.815 122.531 211.815 119.599C211.815 118.939 211.755 118.309 211.647 117.726C212.244 118.3 212.82 118.529 213.371 118.222C214.599 117.54 214.441 114.912 213.018 112.348L213.02 112.35ZM207.808 109.757C208.37 109.757 208.927 109.646 209.446 109.431C209.965 109.215 210.437 108.9 210.834 108.502C211.231 108.105 211.546 107.633 211.761 107.114C211.976 106.594 212.087 106.038 212.087 105.476C212.086 104.913 211.975 104.357 211.76 103.838C211.545 103.319 211.229 102.847 210.832 102.45C210.434 102.052 209.962 101.737 209.443 101.522C208.924 101.307 208.367 101.197 207.805 101.197C207.243 101.197 206.686 101.308 206.167 101.523C205.648 101.739 205.176 102.054 204.779 102.452C203.976 103.255 203.526 104.344 203.526 105.479C203.526 106.614 203.978 107.703 204.781 108.505C205.584 109.308 206.673 109.758 207.808 109.758V109.757Z" fill="#616A74"/>
<path d="M277.02 112.35C276.41 111.245 275.662 110.35 274.912 109.726C274.014 110.392 272.927 110.753 271.809 110.756C270.69 110.753 269.602 110.392 268.703 109.726C267.953 110.351 267.205 111.246 266.593 112.349C265.17 114.911 265.013 117.539 266.243 118.222C266.793 118.529 267.369 118.3 267.965 117.726C267.854 118.344 267.799 118.971 267.799 119.599C267.799 122.531 268.939 124.906 270.342 124.906C271.188 124.906 271.607 124.041 271.808 122.716C272.008 124.041 272.428 124.906 273.27 124.906C274.676 124.906 275.815 122.531 275.815 119.599C275.815 118.939 275.755 118.309 275.647 117.726C276.244 118.3 276.82 118.529 277.371 118.222C278.599 117.54 278.441 114.912 277.018 112.348L277.02 112.35ZM271.808 109.757C272.37 109.757 272.927 109.646 273.446 109.431C273.965 109.215 274.437 108.9 274.834 108.502C275.231 108.105 275.546 107.633 275.761 107.114C275.976 106.594 276.087 106.038 276.087 105.476C276.086 104.913 275.975 104.357 275.76 103.838C275.545 103.319 275.229 102.847 274.832 102.45C274.434 102.052 273.962 101.737 273.443 101.522C272.924 101.307 272.367 101.197 271.805 101.197C271.243 101.197 270.686 101.308 270.167 101.523C269.648 101.739 269.176 102.054 268.779 102.452C267.976 103.255 267.526 104.344 267.526 105.479C267.526 106.614 267.978 107.703 268.781 108.505C269.584 109.308 270.673 109.758 271.808 109.758V109.757Z" fill="#616A74"/>
<path d="M341.02 112.35C340.41 111.245 339.662 110.35 338.912 109.726C338.014 110.392 336.927 110.753 335.809 110.756C334.69 110.753 333.602 110.392 332.703 109.726C331.953 110.351 331.205 111.246 330.593 112.349C329.17 114.911 329.013 117.539 330.243 118.222C330.793 118.529 331.369 118.3 331.965 117.726C331.854 118.344 331.799 118.971 331.799 119.599C331.799 122.531 332.939 124.906 334.342 124.906C335.188 124.906 335.607 124.041 335.808 122.716C336.008 124.041 336.428 124.906 337.27 124.906C338.676 124.906 339.815 122.531 339.815 119.599C339.815 118.939 339.755 118.309 339.647 117.726C340.244 118.3 340.82 118.529 341.371 118.222C342.599 117.54 342.441 114.912 341.018 112.348L341.02 112.35ZM335.808 109.757C336.37 109.757 336.927 109.646 337.446 109.431C337.965 109.215 338.437 108.9 338.834 108.502C339.231 108.105 339.546 107.633 339.761 107.114C339.976 106.594 340.087 106.038 340.087 105.476C340.086 104.913 339.975 104.357 339.76 103.838C339.545 103.319 339.229 102.847 338.832 102.45C338.434 102.052 337.962 101.737 337.443 101.522C336.924 101.307 336.367 101.197 335.805 101.197C335.243 101.197 334.686 101.308 334.167 101.523C333.648 101.739 333.176 102.054 332.779 102.452C331.976 103.255 331.526 104.344 331.526 105.479C331.526 106.614 331.978 107.703 332.781 108.505C333.584 109.308 334.673 109.758 335.808 109.758V109.757Z" fill="#616A74"/>
<path d="M405.02 112.35C404.41 111.245 403.662 110.35 402.912 109.726C402.014 110.392 400.927 110.753 399.809 110.756C398.69 110.753 397.602 110.392 396.703 109.726C395.953 110.351 395.205 111.246 394.593 112.349C393.17 114.911 393.013 117.539 394.243 118.222C394.793 118.529 395.369 118.3 395.965 117.726C395.854 118.344 395.799 118.971 395.799 119.599C395.799 122.531 396.939 124.906 398.342 124.906C399.188 124.906 399.607 124.041 399.808 122.716C400.008 124.041 400.428 124.906 401.27 124.906C402.676 124.906 403.815 122.531 403.815 119.599C403.815 118.939 403.755 118.309 403.647 117.726C404.244 118.3 404.82 118.529 405.371 118.222C406.599 117.54 406.441 114.912 405.018 112.348L405.02 112.35ZM399.808 109.757C400.37 109.757 400.927 109.646 401.446 109.431C401.965 109.215 402.437 108.9 402.834 108.502C403.231 108.105 403.546 107.633 403.761 107.114C403.976 106.594 404.087 106.038 404.087 105.476C404.086 104.913 403.975 104.357 403.76 103.838C403.545 103.319 403.229 102.847 402.832 102.45C402.434 102.052 401.962 101.737 401.443 101.522C400.924 101.307 400.367 101.197 399.805 101.197C399.243 101.197 398.686 101.308 398.167 101.523C397.648 101.739 397.176 102.054 396.779 102.452C395.976 103.255 395.526 104.344 395.526 105.479C395.526 106.614 395.978 107.703 396.781 108.505C397.584 109.308 398.673 109.758 399.808 109.758V109.757Z" fill="#616A74"/>
<path d="M53.02 80.35C52.41 79.245 51.662 78.35 50.912 77.726C50.0143 78.3921 48.9268 78.7531 47.809 78.756C46.6903 78.7531 45.6018 78.3921 44.703 77.726C43.953 78.351 43.205 79.246 42.593 80.349C41.17 82.911 41.013 85.539 42.243 86.222C42.793 86.529 43.369 86.3 43.965 85.726C43.8543 86.3442 43.7987 86.971 43.799 87.599C43.799 90.531 44.939 92.906 46.342 92.906C47.188 92.906 47.607 92.041 47.808 90.716C48.008 92.041 48.428 92.906 49.27 92.906C50.676 92.906 51.815 90.531 51.815 87.599C51.815 86.939 51.755 86.309 51.647 85.726C52.244 86.3 52.82 86.529 53.371 86.222C54.599 85.54 54.441 82.912 53.018 80.348L53.02 80.35ZM47.808 77.757C48.3701 77.7568 48.9266 77.6459 49.4458 77.4307C49.965 77.2154 50.4367 76.9 50.834 76.5024C51.2313 76.1048 51.5464 75.6329 51.7613 75.1135C51.9762 74.5942 52.0867 74.0376 52.0865 73.4755C52.0863 72.9135 51.9754 72.3569 51.7601 71.8378C51.5449 71.3186 51.2294 70.8468 50.8319 70.4495C50.4343 70.0522 49.9624 69.7372 49.443 69.5222C48.9237 69.3073 48.3671 69.1968 47.805 69.197C47.2429 69.1972 46.6863 69.3081 46.167 69.5234C45.6478 69.7387 45.176 70.0542 44.7787 70.4518C43.9762 71.2548 43.5256 72.3438 43.526 73.479C43.5264 74.6143 43.9778 75.7029 44.7808 76.5054C45.5838 77.3078 46.6727 77.7584 47.808 77.758V77.757Z" fill="#616A74"/>
<path d="M117.02 80.35C116.41 79.245 115.662 78.35 114.912 77.726C114.014 78.3921 112.927 78.7531 111.809 78.756C110.69 78.7531 109.602 78.3921 108.703 77.726C107.953 78.351 107.205 79.246 106.593 80.349C105.17 82.911 105.013 85.539 106.243 86.222C106.793 86.529 107.369 86.3 107.965 85.726C107.854 86.3442 107.799 86.971 107.799 87.599C107.799 90.531 108.939 92.906 110.342 92.906C111.188 92.906 111.607 92.041 111.808 90.716C112.008 92.041 112.428 92.906 113.27 92.906C114.676 92.906 115.815 90.531 115.815 87.599C115.815 86.939 115.755 86.309 115.647 85.726C116.244 86.3 116.82 86.529 117.371 86.222C118.599 85.54 118.441 82.912 117.018 80.348L117.02 80.35ZM111.808 77.757C112.37 77.7568 112.927 77.6459 113.446 77.4307C113.965 77.2154 114.437 76.9 114.834 76.5024C115.231 76.1048 115.546 75.6329 115.761 75.1135C115.976 74.5942 116.087 74.0376 116.087 73.4755C116.086 72.9135 115.975 72.3569 115.76 71.8378C115.545 71.3186 115.229 70.8468 114.832 70.4495C114.434 70.0522 113.962 69.7372 113.443 69.5222C112.924 69.3073 112.367 69.1968 111.805 69.197C111.243 69.1972 110.686 69.3081 110.167 69.5234C109.648 69.7387 109.176 70.0542 108.779 70.4518C107.976 71.2548 107.526 72.3438 107.526 73.479C107.526 74.6143 107.978 75.7029 108.781 76.5054C109.584 77.3078 110.673 77.7584 111.808 77.758V77.757Z" fill="#616A74"/>
<path d="M181.02 80.35C180.41 79.245 179.662 78.35 178.912 77.726C178.014 78.3921 176.927 78.7531 175.809 78.756C174.69 78.7531 173.602 78.3921 172.703 77.726C171.953 78.351 171.205 79.246 170.593 80.349C169.17 82.911 169.013 85.539 170.243 86.222C170.793 86.529 171.369 86.3 171.965 85.726C171.854 86.3442 171.799 86.971 171.799 87.599C171.799 90.531 172.939 92.906 174.342 92.906C175.188 92.906 175.607 92.041 175.808 90.716C176.008 92.041 176.428 92.906 177.27 92.906C178.676 92.906 179.815 90.531 179.815 87.599C179.815 86.939 179.755 86.309 179.647 85.726C180.244 86.3 180.82 86.529 181.371 86.222C182.599 85.54 182.441 82.912 181.018 80.348L181.02 80.35ZM175.808 77.757C176.37 77.7568 176.927 77.6459 177.446 77.4307C177.965 77.2154 178.437 76.9 178.834 76.5024C179.231 76.1048 179.546 75.6329 179.761 75.1135C179.976 74.5942 180.087 74.0376 180.087 73.4755C180.086 72.9135 179.975 72.3569 179.76 71.8378C179.545 71.3186 179.229 70.8468 178.832 70.4495C178.434 70.0522 177.962 69.7372 177.443 69.5222C176.924 69.3073 176.367 69.1968 175.805 69.197C175.243 69.1972 174.686 69.3081 174.167 69.5234C173.648 69.7387 173.176 70.0542 172.779 70.4518C171.976 71.2548 171.526 72.3438 171.526 73.479C171.526 74.6143 171.978 75.7029 172.781 76.5054C173.584 77.3078 174.673 77.7584 175.808 77.758V77.757Z" fill="#616A74"/>
<path d="M245.02 80.35C244.41 79.245 243.662 78.35 242.912 77.726C242.014 78.3921 240.927 78.7531 239.809 78.756C238.69 78.7531 237.602 78.3921 236.703 77.726C235.953 78.351 235.205 79.246 234.593 80.349C233.17 82.911 233.013 85.539 234.243 86.222C234.793 86.529 235.369 86.3 235.965 85.726C235.854 86.3442 235.799 86.971 235.799 87.599C235.799 90.531 236.939 92.906 238.342 92.906C239.188 92.906 239.607 92.041 239.808 90.716C240.008 92.041 240.428 92.906 241.27 92.906C242.676 92.906 243.815 90.531 243.815 87.599C243.815 86.939 243.755 86.309 243.647 85.726C244.244 86.3 244.82 86.529 245.371 86.222C246.599 85.54 246.441 82.912 245.018 80.348L245.02 80.35ZM239.808 77.757C240.37 77.7568 240.927 77.6459 241.446 77.4307C241.965 77.2154 242.437 76.9 242.834 76.5024C243.231 76.1048 243.546 75.6329 243.761 75.1135C243.976 74.5942 244.087 74.0376 244.087 73.4755C244.086 72.9135 243.975 72.3569 243.76 71.8378C243.545 71.3186 243.229 70.8468 242.832 70.4495C242.434 70.0522 241.962 69.7372 241.443 69.5222C240.924 69.3073 240.367 69.1968 239.805 69.197C239.243 69.1972 238.686 69.3081 238.167 69.5234C237.648 69.7387 237.176 70.0542 236.779 70.4518C235.976 71.2548 235.526 72.3438 235.526 73.479C235.526 74.6143 235.978 75.7029 236.781 76.5054C237.584 77.3078 238.673 77.7584 239.808 77.758V77.757Z" fill="#616A74"/>
<path d="M309.02 80.35C308.41 79.245 307.662 78.35 306.912 77.726C306.014 78.3921 304.927 78.7531 303.809 78.756C302.69 78.7531 301.602 78.3921 300.703 77.726C299.953 78.351 299.205 79.246 298.593 80.349C297.17 82.911 297.013 85.539 298.243 86.222C298.793 86.529 299.369 86.3 299.965 85.726C299.854 86.3442 299.799 86.971 299.799 87.599C299.799 90.531 300.939 92.906 302.342 92.906C303.188 92.906 303.607 92.041 303.808 90.716C304.008 92.041 304.428 92.906 305.27 92.906C306.676 92.906 307.815 90.531 307.815 87.599C307.815 86.939 307.755 86.309 307.647 85.726C308.244 86.3 308.82 86.529 309.371 86.222C310.599 85.54 310.441 82.912 309.018 80.348L309.02 80.35ZM303.808 77.757C304.37 77.7568 304.927 77.6459 305.446 77.4307C305.965 77.2154 306.437 76.9 306.834 76.5024C307.231 76.1048 307.546 75.6329 307.761 75.1135C307.976 74.5942 308.087 74.0376 308.087 73.4755C308.086 72.9135 307.975 72.3569 307.76 71.8378C307.545 71.3186 307.229 70.8468 306.832 70.4495C306.434 70.0522 305.962 69.7372 305.443 69.5222C304.924 69.3073 304.367 69.1968 303.805 69.197C303.243 69.1972 302.686 69.3081 302.167 69.5234C301.648 69.7387 301.176 70.0542 300.779 70.4518C299.976 71.2548 299.526 72.3438 299.526 73.479C299.526 74.6143 299.978 75.7029 300.781 76.5054C301.584 77.3078 302.673 77.7584 303.808 77.758V77.757Z" fill="#616A74"/>
<path d="M373.02 80.35C372.41 79.245 371.662 78.35 370.912 77.726C370.014 78.3921 368.927 78.7531 367.809 78.756C366.69 78.7531 365.602 78.3921 364.703 77.726C363.953 78.351 363.205 79.246 362.593 80.349C361.17 82.911 361.013 85.539 362.243 86.222C362.793 86.529 363.369 86.3 363.965 85.726C363.854 86.3442 363.799 86.971 363.799 87.599C363.799 90.531 364.939 92.906 366.342 92.906C367.188 92.906 367.607 92.041 367.808 90.716C368.008 92.041 368.428 92.906 369.27 92.906C370.676 92.906 371.815 90.531 371.815 87.599C371.815 86.939 371.755 86.309 371.647 85.726C372.244 86.3 372.82 86.529 373.371 86.222C374.599 85.54 374.441 82.912 373.018 80.348L373.02 80.35ZM367.808 77.757C368.37 77.7568 368.927 77.6459 369.446 77.4307C369.965 77.2154 370.437 76.9 370.834 76.5024C371.231 76.1048 371.546 75.6329 371.761 75.1135C371.976 74.5942 372.087 74.0376 372.087 73.4755C372.086 72.9135 371.975 72.3569 371.76 71.8378C371.545 71.3186 371.229 70.8468 370.832 70.4495C370.434 70.0522 369.962 69.7372 369.443 69.5222C368.924 69.3073 368.367 69.1968 367.805 69.197C367.243 69.1972 366.686 69.3081 366.167 69.5234C365.648 69.7387 365.176 70.0542 364.779 70.4518C363.976 71.2548 363.526 72.3438 363.526 73.479C363.526 74.6143 363.978 75.7029 364.781 76.5054C365.584 77.3078 366.673 77.7584 367.808 77.758V77.757Z" fill="#616A74"/>
<path d="M437.02 80.35C436.41 79.245 435.662 78.35 434.912 77.726C434.014 78.3921 432.927 78.7531 431.809 78.756C430.69 78.7531 429.602 78.3921 428.703 77.726C427.953 78.351 427.205 79.246 426.593 80.349C425.17 82.911 425.013 85.539 426.243 86.222C426.793 86.529 427.369 86.3 427.965 85.726C427.854 86.3442 427.799 86.971 427.799 87.599C427.799 90.531 428.939 92.906 430.342 92.906C431.188 92.906 431.607 92.041 431.808 90.716C432.008 92.041 432.428 92.906 433.27 92.906C434.676 92.906 435.815 90.531 435.815 87.599C435.815 86.939 435.755 86.309 435.647 85.726C436.244 86.3 436.82 86.529 437.371 86.222C438.599 85.54 438.441 82.912 437.018 80.348L437.02 80.35ZM431.808 77.757C432.37 77.7568 432.927 77.6459 433.446 77.4307C433.965 77.2154 434.437 76.9 434.834 76.5024C435.231 76.1048 435.546 75.6329 435.761 75.1135C435.976 74.5942 436.087 74.0376 436.087 73.4755C436.086 72.9135 435.975 72.3569 435.76 71.8378C435.545 71.3186 435.229 70.8468 434.832 70.4495C434.434 70.0522 433.962 69.7372 433.443 69.5222C432.924 69.3073 432.367 69.1968 431.805 69.197C431.243 69.1972 430.686 69.3081 430.167 69.5234C429.648 69.7387 429.176 70.0542 428.779 70.4518C427.976 71.2548 427.526 72.3438 427.526 73.479C427.526 74.6143 427.978 75.7029 428.781 76.5054C429.584 77.3078 430.673 77.7584 431.808 77.758V77.757Z" fill="#616A74"/>
</svg>
