<svg width="310" height="60" viewBox="0 0 310 60" fill="none" xmlns="http://www.w3.org/2000/svg">
<g filter="url(#filter0_ii_158_1908)">
<path d="M0 10C0 4.47715 4.47715 0 10 0H300C305.523 0 310 4.47715 310 10V50C310 55.5228 305.523 60 300 60H10C4.47716 60 0 55.5228 0 50V10Z" fill="#E5DDC5" fill-opacity="0.01"/>
</g>
<g filter="url(#filter1_ii_158_1908)">
<path d="M0 10C0 4.47715 4.47715 0 10 0H300C305.523 0 310 4.47715 310 10V50C310 55.5228 305.523 60 300 60H10C4.47716 60 0 55.5228 0 50V10Z" fill="#E5DDC5" fill-opacity="0.01"/>
</g>
<path d="M73.376 42.384C71.648 42.384 70.0373 42.1067 68.544 41.552C67.072 40.976 65.792 40.1653 64.704 39.12C63.616 38.0747 62.7627 36.848 62.144 35.44C61.5467 34.032 61.248 32.4853 61.248 30.8C61.248 29.1147 61.5467 27.568 62.144 26.16C62.7627 24.752 63.616 23.5253 64.704 22.48C65.8133 21.4347 67.104 20.6347 68.576 20.08C70.048 19.504 71.6587 19.216 73.408 19.216C75.3493 19.216 77.0987 19.5573 78.656 20.24C80.2347 20.9013 81.5573 21.8827 82.624 23.184L79.296 26.256C78.528 25.3813 77.6747 24.7307 76.736 24.304C75.7973 23.856 74.7733 23.632 73.664 23.632C72.6187 23.632 71.6587 23.8027 70.784 24.144C69.9093 24.4853 69.152 24.976 68.512 25.616C67.872 26.256 67.3707 27.0133 67.008 27.888C66.6667 28.7627 66.496 29.7333 66.496 30.8C66.496 31.8667 66.6667 32.8373 67.008 33.712C67.3707 34.5867 67.872 35.344 68.512 35.984C69.152 36.624 69.9093 37.1147 70.784 37.456C71.6587 37.7973 72.6187 37.968 73.664 37.968C74.7733 37.968 75.7973 37.7547 76.736 37.328C77.6747 36.88 78.528 36.208 79.296 35.312L82.624 38.384C81.5573 39.6853 80.2347 40.6773 78.656 41.36C77.0987 42.0427 75.3387 42.384 73.376 42.384ZM90.9247 42V19.6H96.1087V37.776H107.341V42H90.9247ZM125.542 42.384C123.772 42.384 122.129 42.096 120.614 41.52C119.121 40.944 117.82 40.1333 116.71 39.088C115.622 38.0427 114.769 36.816 114.15 35.408C113.553 34 113.254 32.464 113.254 30.8C113.254 29.136 113.553 27.6 114.15 26.192C114.769 24.784 115.633 23.5573 116.742 22.512C117.852 21.4667 119.153 20.656 120.646 20.08C122.14 19.504 123.761 19.216 125.51 19.216C127.281 19.216 128.902 19.504 130.374 20.08C131.868 20.656 133.158 21.4667 134.246 22.512C135.356 23.5573 136.22 24.784 136.838 26.192C137.457 27.5787 137.766 29.1147 137.766 30.8C137.766 32.464 137.457 34.0107 136.838 35.44C136.22 36.848 135.356 38.0747 134.246 39.12C133.158 40.144 131.868 40.944 130.374 41.52C128.902 42.096 127.292 42.384 125.542 42.384ZM125.51 37.968C126.513 37.968 127.43 37.7973 128.262 37.456C129.116 37.1147 129.862 36.624 130.502 35.984C131.142 35.344 131.633 34.5867 131.974 33.712C132.337 32.8373 132.518 31.8667 132.518 30.8C132.518 29.7333 132.337 28.7627 131.974 27.888C131.633 27.0133 131.142 26.256 130.502 25.616C129.884 24.976 129.148 24.4853 128.294 24.144C127.441 23.8027 126.513 23.632 125.51 23.632C124.508 23.632 123.58 23.8027 122.726 24.144C121.894 24.4853 121.158 24.976 120.518 25.616C119.878 26.256 119.377 27.0133 119.014 27.888C118.673 28.7627 118.502 29.7333 118.502 30.8C118.502 31.8453 118.673 32.816 119.014 33.712C119.377 34.5867 119.868 35.344 120.486 35.984C121.126 36.624 121.873 37.1147 122.726 37.456C123.58 37.7973 124.508 37.968 125.51 37.968ZM150.79 42V23.824H143.622V19.6H163.142V23.824H155.974V42H150.79ZM186.091 19.6H191.275V42H186.091V19.6ZM175.915 42H170.731V19.6H175.915V42ZM186.475 32.816H175.531V28.432H186.475V32.816Z" fill="#394C60"/>
<path d="M201.375 42V19.6H212.319C215.135 19.6 217.247 20.1333 218.655 21.2C220.084 22.2667 220.799 23.6747 220.799 25.424C220.799 26.5973 220.511 27.6213 219.935 28.496C219.359 29.3493 218.569 30.0107 217.567 30.48C216.564 30.9493 215.412 31.184 214.111 31.184L214.719 29.872C216.127 29.872 217.375 30.1067 218.463 30.576C219.551 31.024 220.393 31.696 220.991 32.592C221.609 33.488 221.919 34.5867 221.919 35.888C221.919 37.808 221.161 39.312 219.647 40.4C218.132 41.4667 215.903 42 212.959 42H201.375ZM206.527 38.096H212.575C213.919 38.096 214.932 37.8827 215.615 37.456C216.319 37.008 216.671 36.304 216.671 35.344C216.671 34.4053 216.319 33.712 215.615 33.264C214.932 32.7947 213.919 32.56 212.575 32.56H206.143V28.784H211.679C212.937 28.784 213.897 28.5707 214.559 28.144C215.241 27.696 215.583 27.024 215.583 26.128C215.583 25.2533 215.241 24.6027 214.559 24.176C213.897 23.728 212.937 23.504 211.679 23.504H206.527V38.096ZM235.743 42V32.848L236.927 35.984L227.071 19.6H232.575L240.127 32.176H236.959L244.543 19.6H249.631L239.775 35.984L240.927 32.848V42H235.743Z" fill="#6E7F91"/>
<defs>
<filter id="filter0_ii_158_1908" x="0" y="0" width="310" height="60" filterUnits="userSpaceOnUse" color-interpolation-filters="sRGB">
<feFlood flood-opacity="0" result="BackgroundImageFix"/>
<feBlend mode="normal" in="SourceGraphic" in2="BackgroundImageFix" result="shape"/>
<feColorMatrix in="SourceAlpha" type="matrix" values="0 0 0 0 0 0 0 0 0 0 0 0 0 0 0 0 0 0 127 0" result="hardAlpha"/>
<feOffset dx="-4" dy="-4"/>
<feComposite in2="hardAlpha" operator="arithmetic" k2="-1" k3="1"/>
<feColorMatrix type="matrix" values="0 0 0 0 0.223529 0 0 0 0 0.298039 0 0 0 0 0.376471 0 0 0 1 0"/>
<feBlend mode="normal" in2="shape" result="effect1_innerShadow_158_1908"/>
<feColorMatrix in="SourceAlpha" type="matrix" values="0 0 0 0 0 0 0 0 0 0 0 0 0 0 0 0 0 0 127 0" result="hardAlpha"/>
<feOffset dx="4" dy="4"/>
<feComposite in2="hardAlpha" operator="arithmetic" k2="-1" k3="1"/>
<feColorMatrix type="matrix" values="0 0 0 0 0.431373 0 0 0 0 0.498039 0 0 0 0 0.568627 0 0 0 1 0"/>
<feBlend mode="normal" in2="effect1_innerShadow_158_1908" result="effect2_innerShadow_158_1908"/>
</filter>
<filter id="filter1_ii_158_1908" x="0" y="0" width="310" height="60" filterUnits="userSpaceOnUse" color-interpolation-filters="sRGB">
<feFlood flood-opacity="0" result="BackgroundImageFix"/>
<feBlend mode="normal" in="SourceGraphic" in2="BackgroundImageFix" result="shape"/>
<feColorMatrix in="SourceAlpha" type="matrix" values="0 0 0 0 0 0 0 0 0 0 0 0 0 0 0 0 0 0 127 0" result="hardAlpha"/>
<feOffset dx="-4" dy="-4"/>
<feComposite in2="hardAlpha" operator="arithmetic" k2="-1" k3="1"/>
<feColorMatrix type="matrix" values="0 0 0 0 0.223529 0 0 0 0 0.298039 0 0 0 0 0.376471 0 0 0 1 0"/>
<feBlend mode="normal" in2="shape" result="effect1_innerShadow_158_1908"/>
<feColorMatrix in="SourceAlpha" type="matrix" values="0 0 0 0 0 0 0 0 0 0 0 0 0 0 0 0 0 0 127 0" result="hardAlpha"/>
<feOffset dx="4" dy="4"/>
<feComposite in2="hardAlpha" operator="arithmetic" k2="-1" k3="1"/>
<feColorMatrix type="matrix" values="0 0 0 0 0.431373 0 0 0 0 0.498039 0 0 0 0 0.568627 0 0 0 1 0"/>
<feBlend mode="normal" in2="effect1_innerShadow_158_1908" result="effect2_innerShadow_158_1908"/>
</filter>
</defs>
</svg>
