<svg width="339" height="116" viewBox="0 0 339 116" fill="none" xmlns="http://www.w3.org/2000/svg">
<path d="M0.426 36V0.299998H2.619L19.194 28.911H18.021L34.545 0.299998H36.687L36.738 36H34.188L34.137 4.227H34.851L19.194 31.257H17.919L2.211 4.227H2.976V36H0.426ZM64.8832 36.255C62.2312 36.255 59.7662 35.813 57.4882 34.929C55.2442 34.011 53.2722 32.736 51.5722 31.104C49.9062 29.438 48.6142 27.517 47.6962 25.341C46.7782 23.131 46.3192 20.734 46.3192 18.15C46.3192 15.566 46.7782 13.186 47.6962 11.01C48.6142 8.8 49.9062 6.879 51.5722 5.247C53.2722 3.581 55.2442 2.306 57.4882 1.422C59.7662 0.503998 62.2312 0.0449978 64.8832 0.0449978C67.5352 0.0449978 69.9832 0.503998 72.2272 1.422C74.5052 2.306 76.4772 3.564 78.1432 5.196C79.8092 6.828 81.1012 8.749 82.0192 10.959C82.9712 13.135 83.4472 15.532 83.4472 18.15C83.4472 20.768 82.9712 23.182 82.0192 25.392C81.1012 27.568 79.8092 29.472 78.1432 31.104C76.4772 32.736 74.5052 34.011 72.2272 34.929C69.9832 35.813 67.5352 36.255 64.8832 36.255ZM64.8832 33.858C67.1612 33.858 69.2692 33.467 71.2072 32.685C73.1452 31.903 74.8282 30.798 76.2562 29.37C77.6842 27.942 78.7892 26.276 79.5712 24.372C80.3872 22.468 80.7952 20.394 80.7952 18.15C80.7952 15.872 80.3872 13.798 79.5712 11.928C78.7892 10.024 77.6842 8.358 76.2562 6.93C74.8282 5.502 73.1452 4.397 71.2072 3.615C69.2692 2.833 67.1612 2.442 64.8832 2.442C62.6052 2.442 60.4972 2.833 58.5592 3.615C56.6212 4.397 54.9212 5.502 53.4592 6.93C52.0312 8.358 50.9092 10.024 50.0932 11.928C49.3112 13.798 48.9202 15.872 48.9202 18.15C48.9202 20.394 49.3112 22.468 50.0932 24.372C50.9092 26.276 52.0312 27.942 53.4592 29.37C54.9212 30.798 56.6212 31.903 58.5592 32.685C60.4972 33.467 62.6052 33.858 64.8832 33.858ZM115.731 34.725V2.646H97.4726L97.1666 12.234C97.0646 15.056 96.8946 17.759 96.6566 20.343C96.4186 22.927 96.0616 25.256 95.5856 27.33C95.1096 29.37 94.4466 31.019 93.5966 32.277C92.7806 33.535 91.7436 34.215 90.4856 34.317L87.4766 33.654C88.9046 33.756 90.0606 33.263 90.9446 32.175C91.8626 31.087 92.5766 29.54 93.0866 27.534C93.6306 25.528 94.0216 23.199 94.2596 20.547C94.4976 17.895 94.6676 15.056 94.7696 12.03L95.1266 0.299998H118.332V34.725H115.731ZM86.1506 44.16L86.2016 33.654H123.84V44.16H121.341V36H88.7006L88.6496 44.16H86.1506ZM126.702 36L143.124 0.299998H145.725L162.147 36H159.342L143.838 1.932H144.96L129.507 36H126.702ZM132.72 25.953L133.587 23.76H154.956L155.823 25.953H132.72Z" fill="#EDECE7"/>
<path d="M0.976 114V69.2H6.224L26.32 103.056H23.504L43.344 69.2H48.592L48.656 114H42.512L42.448 78.864H43.92L26.256 108.56H23.312L5.52 78.864H7.12V114H0.976ZM62.473 108.368C64.6917 109.179 66.7397 109.392 68.617 109.008C70.4943 108.581 72.1797 107.152 73.673 104.72L75.849 101.264L76.489 100.56L92.937 69.2H99.273L79.369 106.064C77.8757 108.88 76.1263 111.013 74.121 112.464C72.1583 113.872 70.025 114.64 67.721 114.768C65.4597 114.939 63.1557 114.512 60.809 113.488L62.473 108.368ZM76.297 106.256L56.649 69.2H63.497L79.817 101.136L76.297 106.256ZM155.59 114L141.574 91.92L146.95 88.72L163.077 114H155.59ZM132.614 94.288V88.656H145.734V94.288H132.614ZM147.334 92.304L141.382 91.408L155.142 69.2H161.99L147.334 92.304ZM107.142 114H99.6535L115.718 88.72L121.158 91.92L107.142 114ZM134.534 114H128.262V69.2H134.534V114ZM130.182 94.288H116.998V88.656H130.182V94.288ZM115.462 92.304L100.742 69.2H107.59L121.286 91.408L115.462 92.304ZM189.696 114.512C186.282 114.512 183.125 113.957 180.224 112.848C177.365 111.696 174.869 110.096 172.736 108.048C170.645 105.957 169.002 103.525 167.808 100.752C166.613 97.9787 166.016 94.928 166.016 91.6C166.016 88.272 166.613 85.2213 167.808 82.448C169.002 79.6747 170.666 77.264 172.8 75.216C174.933 73.1253 177.429 71.5253 180.288 70.416C183.189 69.264 186.346 68.688 189.76 68.688C193.216 68.688 196.394 69.2853 199.296 70.48C202.24 71.632 204.736 73.36 206.784 75.664L202.624 79.696C200.917 77.904 198.997 76.5813 196.864 75.728C194.73 74.832 192.448 74.384 190.016 74.384C187.498 74.384 185.152 74.8107 182.976 75.664C180.842 76.5173 178.986 77.712 177.408 79.248C175.829 80.784 174.592 82.6187 173.696 84.752C172.842 86.8427 172.416 89.1253 172.416 91.6C172.416 94.0747 172.842 96.3787 173.696 98.512C174.592 100.603 175.829 102.416 177.408 103.952C178.986 105.488 180.842 106.683 182.976 107.536C185.152 108.389 187.498 108.816 190.016 108.816C192.448 108.816 194.73 108.389 196.864 107.536C198.997 106.64 200.917 105.275 202.624 103.44L206.784 107.472C204.736 109.776 202.24 111.525 199.296 112.72C196.394 113.915 193.194 114.512 189.696 114.512ZM245.745 114L229.489 91.92L234.673 88.72L253.041 114H245.745ZM215.601 114V69.2H221.873V114H215.601ZM219.953 94.288V88.656H234.481V94.288H219.953ZM235.249 92.304L229.361 91.408L245.425 69.2H252.273L235.249 92.304ZM252.768 114L273.056 69.2H279.392L299.744 114H293.024L274.912 72.784H277.472L259.36 114H252.768ZM261.408 102.8L263.136 97.68H288.352L290.208 102.8H261.408ZM331.911 114V99.408L333.575 100.944H319.559C315.932 100.944 312.796 100.325 310.151 99.088C307.548 97.8507 305.543 96.08 304.135 93.776C302.77 91.4293 302.087 88.6133 302.087 85.328C302.087 81.9147 302.834 79.0133 304.327 76.624C305.82 74.192 307.932 72.3573 310.663 71.12C313.394 69.84 316.572 69.2 320.199 69.2H338.183V114H331.911ZM302.087 114L313.159 98.128H319.687L308.871 114H302.087ZM331.911 97.36V72.912L333.575 74.768H320.455C316.615 74.768 313.671 75.664 311.623 77.456C309.575 79.2053 308.551 81.808 308.551 85.264C308.551 88.5493 309.511 91.088 311.431 92.88C313.394 94.672 316.274 95.568 320.071 95.568H333.575L331.911 97.36Z" fill="url(#paint0_linear_10_68)"/>
<defs>
<linearGradient id="paint0_linear_10_68" x1="-1.45387" y1="93.0364" x2="105.158" y2="93.5246" gradientUnits="userSpaceOnUse">
<stop stop-color="#EDECE7"/>
<stop offset="1" stop-color="white"/>
</linearGradient>
</defs>
</svg>
